<svg xmlns="http://www.w3.org/2000/svg" width="1800" height="1120" viewBox="0 0 1800 1120" font-family="Microsoft JhengHei,sans-serif"><rect width="100%" height="100%" fill="#f6f4ee"/>
<text x="42.00" y="57.80" font-size="35" fill="#253d3a" text-anchor="start" font-weight="700">A  /  南牆電視 × 開放長中島</text>
<text x="44.00" y="99.48" font-size="21" fill="#6b7a76" text-anchor="start" font-weight="400">把中央視線讓出來，收藏退到周邊；最接近完整開放客廳。</text>
<text x="44.00" y="132.96" font-size="17" fill="#6b7a76" text-anchor="start" font-weight="400">拆除收藏室後的新方向 · 2D 討論稿，尚未套用 3D · 2026.09.11 · 單位 cm</text>
<rect x="57.60" y="200.60" width="1038.20" height="713.40" fill="#eae6dc" stroke="none" stroke-width="1"/>
<rect x="75.00" y="658.80" width="377.23" height="237.80" fill="#dce7da" stroke="none" stroke-width="1"/>
<rect x="1078.28" y="809.72" width="116.12" height="104.28" fill="#69716c" stroke="none" stroke-width="1"/>
<rect x="336.12" y="809.72" width="116.12" height="104.28" fill="#69716c" stroke="none" stroke-width="1"/>
<rect x="631.80" y="896.60" width="446.60" height="17.40" fill="#69716c" stroke="none" stroke-width="1"/>
<rect x="452.00" y="896.60" width="9.28" height="17.40" fill="#69716c" stroke="none" stroke-width="1"/>
<rect x="585.40" y="896.60" width="46.40" height="17.40" fill="#69716c" stroke="none" stroke-width="1"/>
<rect x="1078.40" y="223.80" width="11.60" height="237.80" fill="#69716c" stroke="none" stroke-width="1"/>
<rect x="1078.40" y="223.80" width="11.60" height="3.48" fill="#69716c" stroke="none" stroke-width="1"/>
<rect x="1078.40" y="458.12" width="11.60" height="3.48" fill="#69716c" stroke="none" stroke-width="1"/>
<rect x="1082.46" y="227.28" width="3.48" height="230.84" fill="#69716c" stroke="none" stroke-width="1"/>
<rect x="1078.40" y="461.60" width="116.00" height="81.20" fill="#69716c" stroke="none" stroke-width="1"/>
<rect x="1078.40" y="542.80" width="11.60" height="266.80" fill="#69716c" stroke="none" stroke-width="1"/>
<rect x="1078.40" y="542.80" width="11.60" height="3.48" fill="#69716c" stroke="none" stroke-width="1"/>
<rect x="1078.40" y="806.12" width="11.60" height="3.48" fill="#69716c" stroke="none" stroke-width="1"/>
<rect x="1082.46" y="546.28" width="3.48" height="259.84" fill="#69716c" stroke="none" stroke-width="1"/>
<rect x="301.20" y="212.20" width="87.00" height="11.60" fill="#69716c" stroke="none" stroke-width="1"/>
<rect x="492.60" y="212.20" width="87.00" height="11.60" fill="#69716c" stroke="none" stroke-width="1"/>
<rect x="672.40" y="212.20" width="23.20" height="11.60" fill="#69716c" stroke="none" stroke-width="1"/>
<rect x="695.60" y="212.20" width="38.28" height="11.60" fill="#69716c" stroke="none" stroke-width="1"/>
<rect x="831.32" y="212.20" width="247.08" height="11.60" fill="#69716c" stroke="none" stroke-width="1"/>
<rect x="831.32" y="212.20" width="3.48" height="11.60" fill="#69716c" stroke="none" stroke-width="1"/>
<rect x="1074.92" y="212.20" width="3.48" height="11.60" fill="#69716c" stroke="none" stroke-width="1"/>
<rect x="834.80" y="216.26" width="240.12" height="3.48" fill="#69716c" stroke="none" stroke-width="1"/>
<rect x="63.40" y="359.52" width="11.60" height="3.48" fill="#69716c" stroke="none" stroke-width="1"/>
<rect x="63.40" y="476.68" width="11.60" height="37.12" fill="#69716c" stroke="none" stroke-width="1"/>
<rect x="63.40" y="653.00" width="11.60" height="243.60" fill="#69716c" stroke="none" stroke-width="1"/>
<polyline points="1078.40,223.80 1078.40,461.60" fill="none" stroke="#a3bbb3" stroke-width="3"/>
<polyline points="1078.40,542.80 1078.40,809.60" fill="none" stroke="#a3bbb3" stroke-width="3"/>
<polyline points="831.32,218.00 1078.40,218.00" fill="none" stroke="#a3bbb3" stroke-width="3"/>
<polyline points="733.88,218.00 795.36,270.20" fill="none" stroke="#436a83" stroke-width="1"/>
<polyline points="63.40,513.80 63.40,653.00" fill="none" stroke="#74adba" stroke-width="5"/>
<text x="597.00" y="201.92" font-size="16" fill="#6b7a76" text-anchor="middle" font-weight="400">↑  主臥／客浴／儲藏室</text>
<text x="955.44" y="201.92" font-size="16" fill="#6b7a76" text-anchor="middle" font-weight="400">↑  雙人書房</text>
<rect x="87.32" y="529.20" width="38.00" height="21.00" fill="#f6f4ee" stroke="none" stroke-width="1"/>
<text x="106.32" y="544.40" font-size="15" fill="#436a83" text-anchor="middle" font-weight="400">廚房</text>
<rect x="82.82" y="553.56" width="47.00" height="19.00" fill="#f6f4ee" stroke="none" stroke-width="1"/>
<text x="106.32" y="567.00" font-size="13" fill="#436a83" text-anchor="middle" font-weight="400">電動門</text>
<polyline points="75.00,662.28 452.23,662.28 452.23,809.60" fill="none" stroke="#b87964" stroke-width="1.5" stroke-dasharray="7 7"/>
<text x="217.68" y="816.12" font-size="14" fill="#267d6d" text-anchor="middle" font-weight="400">原收藏室・打開</text>
<rect x="86.60" y="367.64" width="98.60" height="105.79" fill="#afbfba" stroke="#253d3a" stroke-width="1"/>
<text x="135.90" y="423.58" font-size="14" fill="#253d3a" text-anchor="middle" font-weight="400">冰箱</text>
<rect x="75.00" y="670.40" width="69.60" height="179.80" fill="#a7977c" stroke="#253d3a" stroke-width="1"/>
<text x="109.80" y="707.36" font-size="13" fill="#253d3a" text-anchor="middle" font-weight="400">深</text>
<text x="109.80" y="732.88" font-size="13" fill="#253d3a" text-anchor="middle" font-weight="400">收</text>
<text x="109.80" y="758.40" font-size="13" fill="#253d3a" text-anchor="middle" font-weight="400">納</text>
<rect x="75.00" y="850.20" width="69.60" height="46.40" fill="#a7977c" stroke="#253d3a" stroke-width="1"/>
<rect x="144.60" y="850.20" width="191.40" height="46.40" fill="#b0c9c1" stroke="#253d3a" stroke-width="1"/>
<polyline points="208.40,850.20 208.40,896.60" fill="none" stroke="#6b7a76" stroke-width="1"/>
<polyline points="272.20,850.20 272.20,896.60" fill="none" stroke="#6b7a76" stroke-width="1"/>
<text x="240.30" y="874.68" font-size="12" fill="#253d3a" text-anchor="middle" font-weight="400">玻璃櫃 D40</text>
<rect x="620.20" y="850.20" width="81.20" height="46.40" fill="#a7977c" stroke="#253d3a" stroke-width="1"/>
<text x="660.80" y="876.44" font-size="14" fill="#253d3a" text-anchor="middle" font-weight="400">電箱</text>
<rect x="744.32" y="415.20" width="278.40" height="110.20" fill="#c8bba2" stroke="#253d3a" stroke-width="1"/>
<rect x="767.52" y="438.40" width="74.24" height="82.36" fill="#e1d8c7" stroke="#6b7a76" stroke-width="1"/>
<rect x="844.08" y="438.40" width="74.24" height="82.36" fill="#e1d8c7" stroke="#6b7a76" stroke-width="1"/>
<rect x="920.64" y="438.40" width="74.24" height="82.36" fill="#e1d8c7" stroke="#6b7a76" stroke-width="1"/>
<rect x="744.32" y="415.20" width="278.40" height="19.72" fill="#9a8b74" stroke="none" stroke-width="1"/>
<text x="883.52" y="397.08" font-size="15" fill="#253d3a" text-anchor="middle" font-weight="400">沙發朝南</text>
<rect x="920.64" y="525.40" width="102.08" height="75.40" fill="#c8bba2" stroke="#253d3a" stroke-width="1"/>
<rect x="927.60" y="532.36" width="88.16" height="61.48" fill="#e1d8c7" stroke="#6b7a76" stroke-width="1"/>
<rect x="771.00" y="832.80" width="226.20" height="63.80" fill="#536860" stroke="#253d3a" stroke-width="1"/>
<text x="884.10" y="867.74" font-size="14" fill="#253d3a" text-anchor="middle" font-weight="400">影音櫃</text>
<rect x="585.40" y="722.60" width="63.80" height="127.60" fill="#a7977c" stroke="#253d3a" stroke-width="1"/>
<text x="617.30" y="759.56" font-size="13" fill="#253d3a" text-anchor="middle" font-weight="400">玄</text>
<text x="617.30" y="785.08" font-size="13" fill="#253d3a" text-anchor="middle" font-weight="400">關</text>
<text x="617.30" y="810.60" font-size="13" fill="#253d3a" text-anchor="middle" font-weight="400">矮櫃</text>
<rect x="585.40" y="850.20" width="34.80" height="46.40" fill="#a7977c" stroke="#253d3a" stroke-width="1"/>
<polyline points="94.72,861.80 108.64,875.72" fill="none" stroke="#6b7a76" stroke-width="1"/>
<polyline points="595.84,861.80 609.76,875.72" fill="none" stroke="#6b7a76" stroke-width="1"/>
<rect x="336.12" y="809.72" width="116.12" height="104.28" fill="#69716c" stroke="#253d3a" stroke-width="1"/>
<text x="394.17" y="856.16" font-size="16" fill="#ffffff" text-anchor="middle" font-weight="400">結構柱</text>
<text x="394.17" y="883.68" font-size="13" fill="#ffffff" text-anchor="middle" font-weight="400">保留</text>
<rect x="312.80" y="345.60" width="127.60" height="324.80" fill="#c2c9b6" stroke="#253d3a" stroke-width="2"/>
<polyline points="312.80,426.80 385.88,426.80" fill="none" stroke="#6b7a76" stroke-width="1" stroke-dasharray="7 7"/>
<polyline points="312.80,487.12 385.88,487.12" fill="none" stroke="#6b7a76" stroke-width="1" stroke-dasharray="7 7"/>
<polyline points="312.80,569.48 385.88,569.48" fill="none" stroke="#6b7a76" stroke-width="1" stroke-dasharray="7 7"/>
<text x="348.76" y="391.84" font-size="13" fill="#253d3a" text-anchor="middle" font-weight="400">酒櫃↓</text>
<text x="348.76" y="465.20" font-size="12" fill="#253d3a" text-anchor="middle" font-weight="400">掃地機↓</text>
<rect x="330.20" y="509.16" width="35.50" height="61.13" fill="#304542" stroke="#253d3a" stroke-width="1"/>
<rect x="324.40" y="595.00" width="52.20" height="63.80" fill="#b5c3c0" stroke="#253d3a" stroke-width="1"/>
<rect x="327.30" y="597.90" width="46.40" height="58.00" fill="#6d827c" stroke="#253d3a" stroke-width="1"/>
<circle cx="347.60" cy="626.90" r="3.48" fill="#f6f4ee" stroke="none" stroke-width="1"/>
<polyline points="382.40,605.44 368.48,605.44" fill="none" stroke="#253d3a" stroke-width="2"/>
<text x="404.44" y="551.92" font-size="13" fill="#253d3a" text-anchor="middle" font-weight="400">IH</text>
<text x="404.44" y="630.80" font-size="13" fill="#253d3a" text-anchor="middle" font-weight="400">水槽</text>
<text x="399.80" y="419.68" font-size="13" fill="#253d3a" text-anchor="middle" font-weight="400">備餐</text>
<text x="399.80" y="445.20" font-size="13" fill="#253d3a" text-anchor="middle" font-weight="400">／吧台</text>
<polyline points="324.40,671.56 436.92,671.56" fill="none" stroke="#605742" stroke-width="4"/>
<polyline points="304.68,475.52 271.04,475.52" fill="none" stroke="#436a83" stroke-width="2"/>
<polyline points="271.04,475.52 279.16,468.56" fill="none" stroke="#436a83" stroke-width="2"/>
<polyline points="271.04,475.52 279.16,482.48" fill="none" stroke="#436a83" stroke-width="2"/>
<rect x="1013.61" y="784.37" width="36.77" height="36.54" fill="#314d49" stroke="#253d3a" stroke-width="1"/>
<text x="1032.00" y="804.48" font-size="10" fill="#ffffff" text-anchor="middle" font-weight="400">L</text>
<rect x="717.81" y="784.37" width="36.77" height="36.54" fill="#314d49" stroke="#253d3a" stroke-width="1"/>
<text x="736.20" y="804.48" font-size="10" fill="#ffffff" text-anchor="middle" font-weight="400">R</text>
<rect x="713.00" y="843.53" width="41.76" height="45.82" fill="#6f827a" stroke="#253d3a" stroke-width="1"/>
<text x="733.88" y="868.28" font-size="10" fill="#ffffff" text-anchor="middle" font-weight="400">SW1</text>
<rect x="1022.72" y="843.53" width="41.76" height="45.82" fill="#6f827a" stroke="#253d3a" stroke-width="1"/>
<text x="1043.60" y="868.28" font-size="10" fill="#ffffff" text-anchor="middle" font-weight="400">SW2</text>
<rect x="1015.76" y="360.68" width="32.48" height="27.84" fill="#6f827a" stroke="#253d3a" stroke-width="1"/>
<text x="1032.00" y="376.44" font-size="10" fill="#ffffff" text-anchor="middle" font-weight="400">SL</text>
<rect x="702.56" y="360.68" width="32.48" height="27.84" fill="#6f827a" stroke="#253d3a" stroke-width="1"/>
<text x="718.80" y="376.44" font-size="10" fill="#ffffff" text-anchor="middle" font-weight="400">SR</text>
<rect x="776.97" y="889.18" width="214.25" height="3.25" fill="#142d28" stroke="none" stroke-width="1"/>
<circle cx="858.00" cy="676.20" r="37.12" fill="#a4957a" stroke="#253d3a" stroke-width="1"/>
<text x="858.00" y="679.52" font-size="13" fill="#253d3a" text-anchor="middle" font-weight="400">茶几</text>
<circle cx="884.10" cy="484.80" r="4.64" fill="#436a83" stroke="none" stroke-width="1"/>
<polyline points="884.10,494.08 884.10,889.18" fill="none" stroke="#436a83" stroke-width="1.5" stroke-dasharray="7 7"/>
<rect x="897.12" y="729.88" width="54.00" height="22.00" fill="#f6f4ee" stroke="none" stroke-width="1"/>
<text x="924.12" y="745.96" font-size="16" fill="#436a83" text-anchor="middle" font-weight="700">約349</text>
<text x="884.10" y="939.68" font-size="16" fill="#253d3a" text-anchor="middle" font-weight="700">83 吋固定電視｜朝北</text>
<polyline points="519.28,886.16 519.28,745.80 522.76,716.80 675.88,668.08 805.80,583.40" fill="none" stroke="#267d6d" stroke-width="2"/>
<polyline points="800.40,592.34 805.80,583.40 795.44,584.73" fill="none" stroke="#267d6d" stroke-width="2"/>
<polyline points="519.28,745.80 214.20,745.80 214.20,574.12 34.40,574.12" fill="none" stroke="#267d6d" stroke-width="2"/>
<polyline points="43.80,569.58 34.40,574.12 43.80,578.66" fill="none" stroke="#267d6d" stroke-width="2"/>
<polyline points="522.76,716.80 544.80,583.40 620.20,310.80 771.00,310.80 780.28,218.00" fill="none" stroke="#267d6d" stroke-width="2"/>
<polyline points="783.86,227.81 780.28,218.00 774.83,226.90" fill="none" stroke="#267d6d" stroke-width="2"/>
<circle cx="519.28" cy="883.84" r="6.96" fill="#267d6d" stroke="none" stroke-width="1"/>
<text x="518.12" y="939.68" font-size="16" fill="#267d6d" text-anchor="middle" font-weight="700">入戶</text>
<polyline points="185.20,407.08 312.80,407.08" fill="none" stroke="#267d6d" stroke-width="1.5"/>
<polyline points="181.20,403.08 189.20,411.08" fill="none" stroke="#267d6d" stroke-width="1.5"/>
<polyline points="308.80,403.08 316.80,411.08" fill="none" stroke="#267d6d" stroke-width="1.5"/>
<rect x="230.00" y="380.08" width="38.00" height="22.00" fill="#f6f4ee" stroke="none" stroke-width="1"/>
<text x="249.00" y="396.16" font-size="16" fill="#267d6d" text-anchor="middle" font-weight="700">110</text>
<polyline points="440.40,454.64 744.32,454.64" fill="none" stroke="#267d6d" stroke-width="1.5"/>
<polyline points="436.40,450.64 444.40,458.64" fill="none" stroke="#267d6d" stroke-width="1.5"/>
<polyline points="740.32,450.64 748.32,458.64" fill="none" stroke="#267d6d" stroke-width="1.5"/>
<rect x="573.36" y="429.64" width="38.00" height="22.00" fill="#f6f4ee" stroke="none" stroke-width="1"/>
<text x="592.36" y="445.72" font-size="16" fill="#267d6d" text-anchor="middle" font-weight="700">262</text>
<polyline points="376.60,670.40 376.60,809.72" fill="none" stroke="#267d6d" stroke-width="1.5"/>
<polyline points="372.60,666.40 380.60,674.40" fill="none" stroke="#267d6d" stroke-width="1.5"/>
<polyline points="372.60,805.72 380.60,813.72" fill="none" stroke="#267d6d" stroke-width="1.5"/>
<rect x="345.60" y="733.06" width="52.00" height="22.00" fill="#f6f4ee" stroke="none" stroke-width="1"/>
<text x="371.60" y="749.14" font-size="16" fill="#267d6d" text-anchor="middle" font-weight="700">120.1</text>
<polyline points="452.23,830.48 585.40,830.48" fill="none" stroke="#267d6d" stroke-width="1.5"/>
<polyline points="448.23,826.48 456.23,834.48" fill="none" stroke="#267d6d" stroke-width="1.5"/>
<polyline points="581.40,826.48 589.40,834.48" fill="none" stroke="#267d6d" stroke-width="1.5"/>
<rect x="492.82" y="818.48" width="52.00" height="22.00" fill="#f6f4ee" stroke="none" stroke-width="1"/>
<text x="518.82" y="834.56" font-size="16" fill="#267d6d" text-anchor="middle" font-weight="700">114.8</text>
<polyline points="312.80,321.24 440.40,321.24" fill="none" stroke="#267d6d" stroke-width="1.5"/>
<polyline points="308.80,317.24 316.80,325.24" fill="none" stroke="#267d6d" stroke-width="1.5"/>
<polyline points="436.40,317.24 444.40,325.24" fill="none" stroke="#267d6d" stroke-width="1.5"/>
<rect x="357.60" y="302.24" width="38.00" height="22.00" fill="#f6f4ee" stroke="none" stroke-width="1"/>
<text x="376.60" y="318.32" font-size="16" fill="#267d6d" text-anchor="middle" font-weight="700">110</text>
<polyline points="464.76,345.60 464.76,670.40" fill="none" stroke="#267d6d" stroke-width="1.5"/>
<polyline points="460.76,341.60 468.76,349.60" fill="none" stroke="#267d6d" stroke-width="1.5"/>
<polyline points="460.76,666.40 468.76,674.40" fill="none" stroke="#267d6d" stroke-width="1.5"/>
<rect x="461.76" y="506.00" width="38.00" height="22.00" fill="#f6f4ee" stroke="none" stroke-width="1"/>
<text x="480.76" y="522.08" font-size="16" fill="#267d6d" text-anchor="middle" font-weight="700">280</text>
<polyline points="1032.00,223.80 1032.00,360.68" fill="none" stroke="#267d6d" stroke-width="1.5"/>
<polyline points="1028.00,219.80 1036.00,227.80" fill="none" stroke="#267d6d" stroke-width="1.5"/>
<polyline points="1028.00,356.68 1036.00,364.68" fill="none" stroke="#267d6d" stroke-width="1.5"/>
<rect x="1005.00" y="290.24" width="38.00" height="22.00" fill="#f6f4ee" stroke="none" stroke-width="1"/>
<text x="1024.00" y="306.32" font-size="16" fill="#267d6d" text-anchor="middle" font-weight="700">118</text>
<polyline points="1215.00,177.00 1215.00,991.00" fill="none" stroke="#c9d0c4" stroke-width="1"/>
<rect x="1250.00" y="183.00" width="508.00" height="178.00" fill="#f0eee6" stroke="none" stroke-width="1"/>
<text x="1268.00" y="216.12" font-size="24" fill="#253d3a" text-anchor="start" font-weight="700">01  電視固定在南牆</text>
<text x="1268.00" y="251.72" font-size="19" fill="#6b7a76" text-anchor="start" font-weight="400">83 吋沿用，沙發轉向南側。</text>
<text x="1268.00" y="279.72" font-size="19" fill="#6b7a76" text-anchor="start" font-weight="400">主座到螢幕約 349 cm。</text>
<text x="1268.00" y="307.72" font-size="19" fill="#6b7a76" text-anchor="start" font-weight="400">Q7、雙重低音集中在影音區，</text>
<text x="1268.00" y="335.72" font-size="19" fill="#6b7a76" text-anchor="start" font-weight="400">進門不再先看到電視背板。</text>
<rect x="1250.00" y="384.00" width="508.00" height="178.00" fill="#f0eee6" stroke="none" stroke-width="1"/>
<text x="1268.00" y="417.12" font-size="24" fill="#253d3a" text-anchor="start" font-weight="700">02  中央是一張完整長檯</text>
<text x="1268.00" y="452.72" font-size="19" fill="#6b7a76" text-anchor="start" font-weight="400">中島 280 × 110 × H95。</text>
<text x="1268.00" y="480.72" font-size="19" fill="#6b7a76" text-anchor="start" font-weight="400">55 × 45 備餐槽、酒櫃、掃地機</text>
<text x="1268.00" y="508.72" font-size="19" fill="#6b7a76" text-anchor="start" font-weight="400">與 IH 分區；開口維持朝冰箱。</text>
<text x="1268.00" y="536.72" font-size="19" fill="#6b7a76" text-anchor="start" font-weight="400">東側可留活動吧椅，未計入淨距。</text>
<rect x="1250.00" y="585.00" width="508.00" height="178.00" fill="#f0eee6" stroke="none" stroke-width="1"/>
<text x="1268.00" y="618.12" font-size="24" fill="#253d3a" text-anchor="start" font-weight="700">03  收藏與玄關連續收邊</text>
<text x="1268.00" y="653.72" font-size="19" fill="#6b7a76" text-anchor="start" font-weight="400">西側 D60 深收納接南側 D40 玻璃櫃。</text>
<text x="1268.00" y="681.72" font-size="19" fill="#6b7a76" text-anchor="start" font-weight="400">玄關 H90：包、鑰匙、少量鞋。</text>
<text x="1268.00" y="709.72" font-size="19" fill="#6b7a76" text-anchor="start" font-weight="400">側面帽鉤與短衣桿保留；</text>
<text x="1268.00" y="737.72" font-size="19" fill="#6b7a76" text-anchor="start" font-weight="400">柱與櫃尾之間不留落地細縫。</text>
<rect x="1250.00" y="786.00" width="508.00" height="178.00" fill="#e9ede3" stroke="none" stroke-width="1"/>
<text x="1268.00" y="819.12" font-size="24" fill="#267d6d" text-anchor="start" font-weight="700">我的優先推薦</text>
<text x="1268.00" y="854.72" font-size="19" fill="#6b7a76" text-anchor="start" font-weight="400">開放感最強，電視不用轉動。</text>
<text x="1268.00" y="882.72" font-size="19" fill="#6b7a76" text-anchor="start" font-weight="400">代價：中島無法正面看電視；</text>
<text x="1268.00" y="910.72" font-size="19" fill="#6b7a76" text-anchor="start" font-weight="400">原南牆展示改作影音，展示量減少。</text>
<text x="1268.00" y="938.72" font-size="19" fill="#6b7a76" text-anchor="start" font-weight="400">想要安靜、整齊的客廳，先選 A。</text>
<rect x="45.00" y="994.00" width="18.00" height="18.00" fill="#a7977c" stroke="none" stroke-width="1"/>
<text x="72.00" y="1008.08" font-size="16" fill="#253d3a" text-anchor="start" font-weight="400">木櫃／深收納</text>
<rect x="257.00" y="994.00" width="18.00" height="18.00" fill="#b0c9c1" stroke="none" stroke-width="1"/>
<text x="284.00" y="1008.08" font-size="16" fill="#253d3a" text-anchor="start" font-weight="400">玻璃展示</text>
<rect x="441.00" y="994.00" width="18.00" height="18.00" fill="#c2c9b6" stroke="none" stroke-width="1"/>
<text x="468.00" y="1008.08" font-size="16" fill="#253d3a" text-anchor="start" font-weight="400">石材中島</text>
<rect x="614.00" y="994.00" width="18.00" height="18.00" fill="#314d49" stroke="none" stroke-width="1"/>
<text x="641.00" y="1008.08" font-size="16" fill="#253d3a" text-anchor="start" font-weight="400">Q7 主喇叭</text>
<rect x="814.00" y="994.00" width="18.00" height="18.00" fill="#6f827a" stroke="none" stroke-width="1"/>
<text x="841.00" y="1008.08" font-size="16" fill="#253d3a" text-anchor="start" font-weight="400">SW 重低音</text>
<text x="45.00" y="1047.96" font-size="17" fill="#6b7a76" text-anchor="start" font-weight="400">綠線：回家與通行方向　 紅虛線：原收藏室邊界　 藍虛線：主座觀看距離</text>
<text x="45.00" y="1082.96" font-size="17" fill="#6b7a76" text-anchor="start" font-weight="400">尺寸取自現有模型；通道按門片關閉、未放吧椅量測。設備分艙為預排，機電與收邊需於選案後深化。</text>
</svg>